<svg xmlns="http://www.w3.org/2000/svg" viewBox="0 0 1200 630" width="100%" height="100%" preserveAspectRatio="xMidYMid meet">
  <defs>
    <pattern id="blueprintGrid" width="40" height="40" patternUnits="userSpaceOnUse">
      <path d="M 40 0 L 0 0 0 40" fill="none" stroke="#E5E7EB" stroke-width="0.75" />
    </pattern>
  </defs>

  <rect width="100%" height="100%" fill="#FFFFFF" />
  <rect width="100%" height="100%" fill="url(#blueprintGrid)" />

  <!-- Left Side: Inlined Vector Logo & Typography -->
  <g transform="translate(100, 0)">
    <!-- Official Inlined Logo SVG (Scaled proportionally from original aspect ratio) -->
    <g transform="translate(0, 110) scale(0.32)">
      <!-- Reconstructed Vector Monogram KM -->
  <g fill="#2563EB">
    <!-- Left vertical bar of K -->
    <rect x="100" y="30" width="60" height="300" rx="12" />
    
    <!-- Upper chevron stroke of K -->
    <path d="M 160 180 L 290 50 L 332 92 L 202 222 Z" />
    
    <!-- Lower chevron stroke of K -->
    <path d="M 160 180 L 290 310 L 332 268 L 202 138 Z" />
    
    <!-- M middle chevron -->
    <path d="M 330 310 L 400 180 L 470 310 L 512 268 L 421 98 L 379 98 L 288 268 Z" />
    
    <!-- M right vertical bar -->
    <rect x="470" y="30" width="60" height="300" rx="12" />
  </g>
  
  <!-- Reconstructed Vector Logo Text -->
  <text x="610" y="262" font-family="system-ui, -apple-system, BlinkMacSystemFont, 'Segoe UI', Roboto, Helvetica, Arial, sans-serif" font-size="240" font-weight="700" fill="#111111" letter-spacing="-0.03em">KernMetric</text>
    </g>

    <!-- Blueprint Category Label -->
    <text x="0" y="240" font-family="'JetBrains Mono', 'Courier New', Courier, monospace" font-size="13" font-weight="600" fill="#2563EB" letter-spacing="0.08em">CONSTRAINT DETECTION WORKFLOW</text>

    <!-- Large Editorial Serif Heading -->
    <text x="0" y="310" font-family="'Source Serif 4', Georgia, serif" font-size="48" font-weight="600" fill="#111111" letter-spacing="-0.01em">Growth Diagnostic</text>

    <!-- Supporting Tagline Subtitle -->
    <text x="0" y="365" font-family="system-ui, -apple-system, BlinkMacSystemFont, 'Segoe UI', Roboto, Helvetica, Arial, sans-serif" font-size="20" font-weight="500" fill="#6B7280">Identify the structural constraint limiting growth.</text>

    <!-- Muted Supporting Descriptor -->
    <text x="0" y="415" font-family="system-ui, -apple-system, BlinkMacSystemFont, 'Segoe UI', Roboto, Helvetica, Arial, sans-serif" font-size="14" font-weight="400" fill="#9CA3AF" max-width="500">Standardized pipeline detecting cohort friction.</text>
  </g>

  <!-- Right Side: Flow Pipeline -->
  <g transform="translate(680, 80)">
    <path d="M 0 0 L 400 0 L 400 400 L 0 400 Z" fill="none" stroke="#CBD5E1" stroke-width="1" stroke-dasharray="4 4" opacity="0.4" />
    <line x1="50" y1="200" x2="350" y2="200" stroke="#CBD5E1" stroke-width="2" opacity="0.5" />
    <g transform="translate(80, 200)">
      <circle cx="0" cy="0" r="10" fill="#FFFFFF" stroke="#CBD5E1" stroke-width="2" />
      <text x="0" y="24" font-family="'JetBrains Mono', monospace" font-size="9" fill="#6B7280" text-anchor="middle">INPUT</text>
    </g>
    <g transform="translate(200, 200)">
      <circle cx="0" cy="0" r="14" fill="#FFFFFF" stroke="#2563EB" stroke-width="3" />
      <circle cx="0" cy="0" r="6" fill="#2563EB" />
      <text x="0" y="28" font-family="'JetBrains Mono', monospace" font-size="10" fill="#2563EB" font-weight="600" text-anchor="middle">ANALYSIS</text>
    </g>
    <g transform="translate(320, 200)">
      <circle cx="0" cy="0" r="10" fill="#FFFFFF" stroke="#CBD5E1" stroke-width="2" />
      <text x="0" y="24" font-family="'JetBrains Mono', monospace" font-size="9" fill="#6B7280" text-anchor="middle">REPORT</text>
    </g>
  </g>
</svg>