<svg version="1.1" xmlns="http://www.w3.org/2000/svg" style="display: block;" viewBox="0 0 2048 2048" width="1024" height="1024" preserveAspectRatio="none">
<path transform="translate(0,0)" fill="rgb(255,255,255)" d="M 0 0 L 2048 0 L 2048 2048 L 0 2048 L 0 0 z"/>
<path transform="translate(0,0)" fill="rgb(9,73,159)" d="M 1039.74 558.285 L 1207.14 558.149 L 739.406 1024.81 L 972.236 1256.45 C 1000.87 1283.66 1030.04 1313.81 1058.12 1341.8 L 1206.79 1490.1 C 1151.12 1490.79 1094.16 1490.17 1038.38 1490.21 C 1023.21 1476.77 1003.92 1456.47 989.125 1441.77 L 906.319 1359.79 L 633.249 1087.92 L 633.215 1490.06 L 512.097 1490.32 L 512.088 558.23 L 633.139 558.21 C 633.965 596.606 633.23 637.678 633.226 676.294 L 633.364 962.667 L 1039.74 558.285 z"/>
<path transform="translate(0,0)" fill="rgb(9,73,159)" d="M 1534.86 558.865 C 1536.78 560.882 1535.99 656.151 1535.99 665.898 L 1535.99 871.369 L 1535.98 1490.09 L 1415.04 1490.13 L 1415.01 846.519 L 1281.51 980.029 L 1106.85 1154.62 C 1085.67 1132.61 1061.12 1109.14 1039.27 1087.43 L 915.331 963.515 C 940.756 936.694 973.483 906.015 1000.15 879.543 C 1035.42 912.658 1072.35 950.925 1106.85 985.377 L 1534.86 558.865 z"/>
</svg>