<?xml version="1.0" encoding="UTF-8" standalone="no"?>
<!-- Created with Inkscape (http://www.inkscape.org/) -->

<svg
   width="210mm"
   height="297mm"
   viewBox="0 0 210 297"
   version="1.1"
   id="svg1"
   xml:space="preserve"
   inkscape:export-filename="bitmap.svg"
   inkscape:export-xdpi="96"
   inkscape:export-ydpi="96"
   xmlns:inkscape="http://www.inkscape.org/namespaces/inkscape"
   xmlns:sodipodi="http://sodipodi.sourceforge.net/DTD/sodipodi-0.dtd"
   xmlns="http://www.w3.org/2000/svg"
   xmlns:svg="http://www.w3.org/2000/svg"><sodipodi:namedview
     id="namedview1"
     pagecolor="#ffffff"
     bordercolor="#000000"
     borderopacity="0.25"
     inkscape:showpageshadow="2"
     inkscape:pageopacity="0.0"
     inkscape:pagecheckerboard="0"
     inkscape:deskcolor="#d1d1d1"
     inkscape:document-units="mm"><inkscape:page
       x="0"
       y="0"
       width="210"
       height="297"
       id="page2"
       margin="0"
       bleed="0" /></sodipodi:namedview><defs
     id="defs1" /><g
     inkscape:label="Layer 1"
     inkscape:groupmode="layer"
     id="layer1"><g
       id="g16"
       transform="translate(6.4405204,-9.7527881)"><path
         id="path3"
         style="fill:#000000"
         d="m 76.32543,73.896962 c -1.373721,-0.24207 -2.449901,-1.16592 -2.849422,-2.44609 -0.081,-0.25953 -0.117506,-0.53726 -0.13683,-1.04086 -0.03517,-0.91662 0.0724,-1.42453 0.450949,-2.12927 0.454089,-0.84537 1.138665,-1.37619 2.15101,-1.66789 0.338363,-0.0975 0.48761,-0.11093 1.232009,-0.11093 0.796137,0 0.874304,0.008 1.301558,0.13748 1.121508,0.3392 1.855165,1.05956 2.19515,2.15537 0.12379,0.39899 0.22086,1.30665 0.175539,1.64139 l -0.03494,0.25808 h -2.667985 -2.667985 l 0.03163,0.17764 c 0.0174,0.0977 0.07795,0.32486 0.134574,0.50479 0.0873,0.27742 0.147304,0.36809 0.394711,0.5964 0.360352,0.33253 0.680643,0.44828 1.240421,0.44828 0.532387,0 0.878667,-0.11752 1.188388,-0.40333 0.134588,-0.1242 0.259855,-0.28152 0.27837,-0.34959 0.02932,-0.10782 0.05442,-0.12074 0.194626,-0.10023 0.08853,0.0129 0.461264,0.0462 0.8283,0.0739 0.367036,0.0277 0.75483,0.0622 0.861764,0.0768 0.233016,0.0317 0.231674,0.0428 -0.0764,0.63041 -0.373051,0.71156 -1.071287,1.2275 -1.992543,1.47232 -0.491461,0.1306 -1.689883,0.17106 -2.232887,0.0754 z m 2.43906,-4.51915 c 0,-0.15783 -0.186178,-0.64085 -0.314262,-0.81532 -0.285909,-0.38944 -0.696934,-0.58235 -1.251416,-0.58734 -0.670781,-0.006 -1.169731,0.26216 -1.448662,0.77867 -0.09093,0.16837 -0.180123,0.38606 -0.198214,0.48376 l -0.03289,0.17764 h 1.622725 c 0.892498,0 1.622724,-0.0168 1.622724,-0.0374 z m 33.18724,4.51406 c -1.1666,-0.22142 -2.19595,-1.08738 -2.56349,-2.15659 -0.27091,-0.7881 -0.30521,-1.92839 -0.0819,-2.72271 0.46499,-1.65406 1.84474,-2.60835 3.64406,-2.52037 1.0008,0.0489 1.68102,0.30376 2.28683,0.85669 0.70462,0.64313 1.05221,1.5874 1.05221,2.85855 v 0.39206 h -2.76346 c -1.51991,0 -2.77504,0.0107 -2.78919,0.0237 -0.0141,0.013 -0.006,0.15694 0.0177,0.31975 0.17745,1.20923 1.09619,1.91183 2.38258,1.82205 0.66689,-0.0465 1.28659,-0.40884 1.54082,-0.90081 l 0.0834,-0.16134 0.34058,0.064 c 0.95714,0.17972 1.08491,0.21335 1.08491,0.28562 0,0.04 -0.0864,0.22508 -0.19198,0.41126 -0.36493,0.64352 -1.09631,1.17832 -1.88703,1.37983 -0.43314,0.11039 -1.6816,0.13837 -2.15602,0.0483 z m 2.77996,-4.4648 c -0.0135,-0.0456 -0.0529,-0.20014 -0.0875,-0.34344 -0.1442,-0.5974 -0.50344,-1.02991 -1.04975,-1.26384 -0.268,-0.11476 -0.37134,-0.132 -0.79567,-0.13275 -0.55721,-9.7e-4 -0.85339,0.0799 -1.24106,0.33905 -0.38068,0.25443 -0.69103,0.76148 -0.785,1.28255 l -0.0363,0.20133 h 2.00998 c 1.88944,0 2.00851,-0.005 1.98534,-0.0829 z m 19.44753,4.46583 c -0.64075,-0.12979 -1.08729,-0.34919 -1.57529,-0.77401 -0.86427,-0.75236 -1.28193,-1.84669 -1.20562,-3.1589 0.0737,-1.26717 0.61132,-2.3078 1.49192,-2.88767 0.69065,-0.45479 1.37747,-0.62469 2.34017,-0.5789 0.68217,0.0325 1.01076,0.10552 1.52164,0.33838 0.68326,0.31143 1.28584,1.05012 1.46038,1.79025 0.0354,0.14998 0.0547,0.2815 0.0431,0.29229 -0.0117,0.0108 -0.34777,0.0266 -0.74684,0.0352 l -0.72558,0.0156 -0.13936,-0.29538 c -0.16796,-0.35601 -0.44178,-0.6278 -0.80721,-0.8012 -0.3864,-0.18336 -1.065,-0.21303 -1.49026,-0.0651 -0.60146,0.20914 -1.11635,0.82129 -1.30043,1.54606 -0.11827,0.46568 -0.10689,1.31244 0.0239,1.77835 0.27979,0.99664 0.90185,1.54315 1.81373,1.59345 0.87257,0.0481 1.45557,-0.27568 1.76654,-0.98117 l 0.1165,-0.2643 0.68272,0.0151 c 0.90793,0.0201 0.86766,0.005 0.78465,0.29533 -0.32619,1.14106 -1.25267,1.92605 -2.51121,2.1277 -0.41005,0.0657 -1.16588,0.0554 -1.54342,-0.0211 z m 7.59739,0.0361 c -1.00458,-0.1282 -1.86281,-0.66238 -2.26205,-1.40795 -0.0985,-0.18403 -0.1843,-0.39787 -0.19057,-0.4752 l -0.0114,-0.14061 0.56467,-0.0818 c 0.31057,-0.045 0.6483,-0.0935 0.75052,-0.10767 0.18188,-0.0253 0.18806,-0.0209 0.28978,0.20496 0.24753,0.54964 0.70833,0.81399 1.478,0.84791 0.58293,0.0257 0.9795,-0.0486 1.2916,-0.24198 0.41299,-0.25587 0.56961,-0.63888 0.40608,-0.99305 -0.16251,-0.35195 -0.5719,-0.53648 -1.64929,-0.74342 -0.95135,-0.18272 -1.33864,-0.29315 -1.78455,-0.50882 -0.43665,-0.21119 -0.86838,-0.628 -0.98068,-0.94678 -0.42449,-1.20499 0.34579,-2.36677 1.81966,-2.7445 0.46246,-0.11853 1.73167,-0.12014 2.20324,-0.003 0.68477,0.17039 1.2024,0.50426 1.54897,0.99907 0.16554,0.23634 0.38156,0.72734 0.33737,0.76681 -0.0196,0.0175 -1.20411,0.20944 -1.29255,0.20944 -0.0431,0 -0.12308,-0.0799 -0.17773,-0.17764 -0.11572,-0.20689 -0.42645,-0.49183 -0.64706,-0.59335 -0.71961,-0.33116 -1.88804,-0.13874 -2.20696,0.36345 -0.0823,0.12954 -0.12872,0.2747 -0.12872,0.40221 0,0.53047 0.43888,0.7812 1.83245,1.04688 0.41794,0.0797 0.88574,0.17818 1.03955,0.2189 0.72871,0.1929 1.32172,0.61518 1.57453,1.12124 0.13396,0.26816 0.14721,0.34178 0.14681,0.81584 -4.1e-4,0.4785 -0.0127,0.5443 -0.15003,0.8053 -0.33471,0.63601 -1.10047,1.13594 -2.00338,1.30791 -0.43578,0.083 -1.36,0.11162 -1.79826,0.0557 z m -21.92453,-0.0839 c -0.83498,-0.16763 -1.40524,-0.70484 -1.55622,-1.46603 -0.0349,-0.17608 -0.0558,-1.10064 -0.0558,-2.47512 v -2.19405 h -0.56467 -0.56468 v -0.56845 -0.56845 h 0.56468 0.56467 v -0.87636 -0.87636 h 0.77 0.77001 v 0.87636 0.87636 h 0.82134 0.82134 v 0.56725 0.56725 l -0.80851,0.013 -0.80851,0.0131 -0.0136,1.89483 c -0.0174,2.42151 0.009,2.6056 0.41887,2.8867 0.12174,0.0836 0.21472,0.0973 0.64388,0.095 l 0.5016,-0.003 0.14538,0.55831 c 0.08,0.30707 0.13285,0.56987 0.11754,0.58399 -0.0153,0.0141 -0.18709,0.0568 -0.38176,0.0949 -0.4315,0.0844 -0.96686,0.0845 -1.38564,4.6e-4 z m -55.397103,-4.82065 0.01308,-4.7963 1.115979,-0.0128 1.115979,-0.0128 0.01336,2.11992 0.01336,2.11993 1.875261,-2.10716 1.87526,-2.10716 1.350494,-0.0126 c 0.792404,-0.007 1.343304,0.005 1.333096,0.0303 -0.0096,0.0236 -0.837455,0.96236 -1.839745,2.0861 -1.00229,1.12374 -1.828163,2.06936 -1.835273,2.10138 -0.0071,0.032 0.840719,1.25197 1.884064,2.71099 l 1.896991,2.65277 -1.316673,0.0127 c -1.01121,0.01 -1.330758,-10e-4 -1.377386,-0.0474 -0.03339,-0.033 -0.644636,-0.90205 -1.35832,-1.93119 -0.713685,-1.02913 -1.322843,-1.89611 -1.353685,-1.92663 -0.04177,-0.0413 -0.196859,0.0943 -0.607914,0.53164 l -0.551837,0.58713 v 1.39872 1.39872 h -1.129586 -1.129585 z m 17.680426,4.76471 c -0.01882,-0.0174 -0.03422,-1.64811 -0.03422,-3.62387 v -3.59229 h 1.084595 1.084595 l -0.03659,0.61056 c -0.02013,0.3358 -0.01681,0.62183 0.0074,0.63562 0.02417,0.0138 0.08775,-0.0744 0.14128,-0.19606 0.222748,-0.50609 0.621529,-0.88737 1.101393,-1.05305 0.333193,-0.11504 1.006519,-0.1382 1.312099,-0.0451 l 0.193634,0.059 -0.0327,0.59853 c -0.01799,0.32919 -0.0453,0.71577 -0.06071,0.85907 l -0.028,0.26054 h -0.7023 c -0.677667,0 -0.713103,0.005 -1.010297,0.14211 -0.361272,0.16669 -0.600239,0.43073 -0.720001,0.79555 -0.06512,0.19835 -0.08023,0.48297 -0.07724,1.45456 0.002,0.66438 -0.01157,1.63963 -0.03027,2.16722 l -0.03399,0.95926 h -1.062243 c -0.584217,0 -1.077613,-0.0142 -1.096435,-0.0316 z m 5.778998,-3.58044 0.01315,-3.61203 1.03801,-0.0128 1.038011,-0.0128 0.01433,0.62864 0.01433,0.62864 0.128334,-0.23471 c 0.07058,-0.12909 0.244779,-0.34226 0.3871,-0.47371 0.490436,-0.45297 1.045539,-0.64165 1.887792,-0.64165 1.398994,0 2.32253,0.63089 2.649258,1.80976 0.08559,0.30881 0.09772,0.57305 0.10947,2.38341 0.0073,1.11986 0.0096,2.28657 0.0051,2.5927 l -0.0081,0.55661 h -1.075311 -1.07531 l -0.0158,-2.30933 c -0.01549,-2.26446 -0.01803,-2.31442 -0.130701,-2.5718 -0.132623,-0.30295 -0.411472,-0.575 -0.705069,-0.68789 -0.268989,-0.10343 -0.861041,-0.10387 -1.128241,-8.5e-4 -0.472904,0.18234 -0.7677,0.53017 -0.884307,1.04339 -0.04695,0.20665 -0.06546,0.87916 -0.06623,2.40664 l -0.0011,2.11984 h -1.103996 -1.103995 z m 9.073552,-1.19612 v -4.80814 h 0.99425 0.99425 l 0.63031,1.43297 c 0.730627,1.661 2.554857,5.83087 2.626007,6.00255 0.042,0.1014 0.12268,-0.054 0.61468,-1.18427 0.31147,-0.71555 1.05238,-2.41525 1.64647,-3.77712 l 1.08017,-2.47613 0.98147,0.0128 0.98147,0.0128 v 4.78446 4.78445 l -0.75717,0.0131 -0.75717,0.0131 v -3.51618 c 0,-1.9339 -0.0195,-3.49593 -0.0435,-3.47118 -0.0401,0.0415 -1.37007,3.06049 -2.55016,5.78871 l -0.49689,1.14875 h -0.65127 -0.65126 l -0.8649,-1.95405 c -0.4757,-1.07473 -1.167807,-2.64685 -1.538017,-3.4936 l -0.67311,-1.53955 -0.0132,3.51728 -0.0132,3.51729 h -0.76967 -0.76968 z m 25.923517,1.18551 v -3.62511 h 0.74285 0.74285 l 0.0143,0.62767 0.0143,0.62766 0.13943,-0.26198 c 0.40477,-0.76055 1.09331,-1.11904 2.07334,-1.07949 0.26304,0.0106 0.49046,0.0306 0.50537,0.0443 0.0149,0.0138 0.0122,0.32823 -0.006,0.69882 -0.0291,0.59052 -0.0433,0.66998 -0.11495,0.64294 -0.20168,-0.0761 -0.96423,-0.0793 -1.24054,-0.005 -0.51542,0.13827 -0.96107,0.51565 -1.16394,0.98563 -0.0791,0.18329 -0.0921,0.47324 -0.11521,2.57509 l -0.0261,2.36854 -0.78284,0.0131 -0.78284,0.0131 z m 5.36197,3.56288 c -0.0137,-0.0329 -0.0187,-1.65828 -0.0112,-3.61203 l 0.0136,-3.55227 0.78284,-0.0131 0.78284,-0.0131 v 3.6251 3.62511 h -0.77161 c -0.57368,0 -0.778,-0.0153 -0.79647,-0.0598 z m 0.31041,-8.31924 c -0.24424,-0.10349 -0.35369,-0.20913 -0.46005,-0.44404 -0.16831,-0.37173 -0.0596,-0.73932 0.29611,-1.00165 0.16561,-0.12213 0.24776,-0.14656 0.539,-0.16031 0.28109,-0.0133 0.38556,0.004 0.5742,0.0933 0.67563,0.32104 0.67675,1.18059 0.002,1.49517 -0.28223,0.13157 -0.66537,0.13862 -0.95121,0.0175 z" /><path
         id="path2"
         style="fill:#2563eb;fill-opacity:1"
         d="m 60.071989,70.716114 c 0,-3.29325 -0.01894,-5.54239 -0.04666,-5.54239 -0.02566,0 -1.320164,1.18756 -2.876668,2.63901 l -2.830007,2.63902 -1.777354,-1.64015 -1.777353,-1.64014 0.780558,-0.72398 0.780558,-0.72397 1.00101,0.92122 1.00101,0.92122 3.973533,-3.69493 3.973533,-3.69492 0.0026,8.0412 0.0026,8.0412 H 61.175674 60.072 Z m -16.837453,-2.51364 v -8.05603 l 1.103674,0.0112 1.103675,0.0112 v 3.49728 c 0,1.9235 0.01738,3.49727 0.03863,3.49727 0.02125,0 1.747926,-1.57745 3.837064,-3.50545 l 3.798434,-3.50544 h 1.50164 c 0.825903,0 1.501641,0.016 1.501641,0.0356 0,0.0196 -1.951964,1.83682 -4.337698,4.03826 l -4.337698,4.00263 4.350418,4.01478 4.350418,4.01479 h -1.551409 -1.55141 l -3.800015,-3.48789 -3.800015,-3.48788 v 3.48788 3.48789 H 44.33821 43.234536 Z" /></g></g></svg>
